<?xml version="1.0" standalone="no"?>
<!DOCTYPE svg PUBLIC "-//W3C//DTD SVG 20010904//EN"
 "http://www.w3.org/TR/2001/REC-SVG-20010904/DTD/svg10.dtd">
<svg version="1.0" xmlns="http://www.w3.org/2000/svg"
 width="256.000000pt" height="256.000000pt" viewBox="0 0 256.000000 256.000000"
 preserveAspectRatio="xMidYMid meet">
<metadata>
Created by potrace 1.11, written by Peter Selinger 2001-2013
</metadata>
<g transform="translate(0.000000,256.000000) scale(0.100000,-0.100000)"
fill="#000000" stroke="none">
<path d="M1290 2233 c-30 -12 -60 -47 -60 -70 0 -52 16 -69 209 -222 73 -57
134 -108 136 -112 3 -4 -215 -7 -483 -7 -523 1 -549 -1 -603 -50 -53 -48 -33
-134 37 -155 16 -4 145 -9 287 -10 253 -2 258 -2 235 -20 -12 -10 -81 -63
-153 -118 -71 -55 -142 -110 -156 -122 -15 -12 -49 -39 -75 -59 -27 -21 -110
-86 -184 -144 -74 -58 -159 -124 -189 -146 -82 -62 -131 -108 -147 -141 -23
-43 -28 -105 -10 -131 32 -49 112 -65 176 -34 14 7 72 49 130 93 139 107 296
230 342 267 20 16 40 29 44 29 4 -1 8 -20 10 -43 16 -308 243 -580 561 -673
81 -24 104 -27 219 -30 231 -7 430 67 593 220 152 142 231 329 225 530 -3 122
-9 159 -33 220 -69 170 -132 252 -290 375 -46 36 -125 99 -176 140 -78 63
-193 155 -289 232 -134 108 -204 161 -217 169 -22 11 -120 20 -139 12z"/>
</g>
</svg>
